<svg width="29" height="27" viewBox="0 0 29 27" fill="none" xmlns="http://www.w3.org/2000/svg">
<path d="M15.8083 21.5765L18.363 26.1623C18.6783 26.7273 19.3716 26.964 19.9666 26.7082C21.1692 26.1903 22.2838 25.5096 23.2835 24.6927C23.8619 24.2206 23.9078 23.3541 23.3793 22.8273L21.0569 20.5127C17.3901 16.8583 11.4444 16.8583 7.77767 20.5127L5.4553 22.8273C4.92674 23.3541 4.97142 24.2206 5.55106 24.6927C6.55073 25.5083 7.66531 26.1903 8.86799 26.7082C9.46294 26.9652 10.1575 26.7286 10.4716 26.1623L13.0263 21.5765C13.6314 20.4873 15.2018 20.4873 15.8083 21.5765Z" fill="#0E53D9"/>
<path d="M15.8083 6.2156L18.363 1.62975C18.6783 1.06479 19.3716 0.828115 19.9666 1.08387C21.1692 1.60176 22.2838 2.28251 23.2835 3.09941C23.8619 3.57148 23.9078 4.43801 23.3793 4.9648L21.0569 7.27936C17.3901 10.9338 11.4444 10.9338 7.77767 7.27936L5.4553 4.9648C4.92674 4.43801 4.97142 3.57148 5.55106 3.09941C6.55073 2.28378 7.66531 1.60176 8.86799 1.08387C9.46294 0.826843 10.1575 1.06352 10.4716 1.62975L13.0263 6.2156C13.6314 7.30354 15.2018 7.30354 15.8083 6.2156Z" fill="#0E53D9"/>
<path d="M26.8717 10.8638L18.5756 11.9047C15.814 12.2508 13.0205 12.2508 10.259 11.9047L1.96281 10.8638C1.27976 10.7786 0.651612 11.2532 0.555857 11.9314C0.46521 12.5727 0.417969 13.2293 0.417969 13.8947C0.417969 14.5615 0.46521 15.2181 0.555857 15.8594C0.651612 16.5389 1.28104 17.0135 1.96281 16.927L10.259 15.8861C13.0205 15.54 15.814 15.54 18.5756 15.8861L26.8717 16.927C27.5548 17.0122 28.1829 16.5376 28.2787 15.8594C28.3693 15.2181 28.4166 14.5615 28.4166 13.8947C28.4166 13.228 28.3693 12.5727 28.2787 11.9314C28.1829 11.2532 27.5548 10.7786 26.8717 10.8638Z" fill="#0E53D9"/>
</svg>
